M48
INCH,TZ
T1C0.0157
T2C0.0276
T3C0.0295
T4C0.0300
T5C0.0315
T6C0.0320
T7C0.0394
T8C0.0394
T9C0.0409
T10C0.0433
T11C0.0472
T12C0.0512
T13C0.0551
%
G90
G05
T1
X36193Y-31047
X36193Y-31598
X38043Y-29709
X38594Y-29748
X38917Y-43181
X39303Y-32425
X40484Y-32898
X40957Y-25024
X41390Y-25417
X41417Y-46681
X42295Y-25969
X42807Y-27858
X42917Y-47181
X43240Y-26480
X43551Y-31972
X43555Y-27780
X43917Y-47681
X43917Y-49681
X44185Y-27740
X44417Y-50181
X44917Y-50681
X45417Y-51181
X46114Y-24591
X46417Y-46681
X46417Y-47181
X46417Y-47681
X46417Y-52181
X50051Y-33472
X51417Y-50181
X51832Y-49766
X51917Y-50681
X51917Y-51181
X52051Y-33472
X52335Y-25417
X52417Y-52181
X52571Y-31598
X53201Y-25024
X53476Y-31047
X53555Y-25969
X53917Y-52181
X54417Y-52681
X54417Y-53181
X54417Y-53181
X54972Y-26480
X56417Y-52681
X56417Y-53181
X56917Y-52681
X57051Y-31972
X58043Y-24591
X63413Y-32610
X64146Y-25457
X65051Y-25024
X65091Y-31598
X65602Y-25929
X66035Y-31047
X67020Y-26480
X69972Y-24591
X75327Y-25457
X75799Y-31598
X77098Y-25929
X78575Y-26480
T2
X30051Y-16472
X30051Y-19472
X38917Y-37181
X38917Y-39181
X39051Y-18472
X39051Y-21472
X41917Y-37181
X41917Y-39181
X45917Y-42181
X48551Y-18472
X48551Y-21472
X48917Y-42181
X51051Y-18472
X51051Y-21472
X53417Y-37181
X53417Y-39681
X53917Y-46681
X56417Y-37181
X56417Y-39681
X56917Y-46681
X57917Y-50181
X57917Y-51681
X60917Y-46181
X60917Y-49181
X60917Y-50181
X60917Y-51681
X62051Y-18472
X62051Y-21472
X68917Y-54181
X71917Y-54181
X75051Y-18472
X75051Y-21472
X75917Y-39181
X75917Y-42181
X85051Y-18472
X85051Y-21472
T3
X46051Y-17972
X46051Y-18472
X46051Y-18972
T4
X28551Y-23972
X28551Y-26972
X29051Y-20972
X29051Y-29972
X29551Y-23972
X29551Y-26972
X30051Y-20972
X30051Y-29972
X30551Y-23972
X30551Y-26972
X31051Y-20972
X31051Y-29972
X31551Y-23972
X31551Y-26972
X32051Y-17472
X32051Y-18472
X32051Y-20972
X32051Y-29972
X32551Y-23972
X32551Y-26972
X33051Y-20972
X33051Y-29972
X33551Y-23972
X33551Y-26972
X34051Y-20972
X34051Y-29972
X34551Y-23972
X34551Y-26972
X35051Y-17472
X35051Y-18472
X35051Y-20972
X35051Y-29972
X35551Y-23972
X35551Y-26972
X36917Y-36681
X36917Y-37681
X36917Y-38681
X36917Y-39681
X36917Y-40681
X36917Y-41681
X40551Y-17472
X40551Y-18472
X41051Y-20972
X41051Y-29972
X42051Y-20972
X42051Y-29972
X43051Y-20972
X43051Y-29972
X43551Y-17472
X43551Y-18472
X44051Y-20972
X44051Y-29972
X45051Y-20972
X45051Y-29972
X45917Y-37181
X46051Y-20972
X46051Y-29972
X46917Y-37181
X47051Y-20972
X47051Y-29972
X47917Y-37181
X53051Y-20972
X53051Y-29972
X53551Y-17472
X53551Y-18472
X54051Y-20972
X54051Y-29972
X55051Y-20972
X55051Y-29972
X56051Y-20972
X56051Y-29972
X56551Y-17472
X56551Y-18472
X57051Y-20972
X57051Y-29972
X58051Y-20972
X58051Y-29972
X58917Y-39213
X58917Y-41181
X59051Y-20972
X59051Y-29972
X60492Y-39213
X60492Y-41181
X64551Y-17472
X64551Y-18472
X65051Y-20972
X65051Y-29972
X66051Y-20972
X66051Y-29972
X67051Y-20972
X67051Y-29972
X67551Y-17472
X67551Y-18472
X68051Y-20972
X68051Y-29972
X69051Y-20972
X69051Y-29972
X70051Y-20972
X70051Y-29972
X71051Y-20972
X71051Y-29972
X77051Y-20972
X77051Y-29972
X77551Y-17472
X77551Y-18472
X78051Y-20972
X78051Y-29972
X79051Y-20972
X79051Y-29972
X80051Y-20972
X80051Y-29972
X80551Y-17472
X80551Y-18472
X81051Y-20972
X81051Y-29972
X82051Y-20972
X82051Y-29972
X83051Y-20972
X83051Y-29972
T5
X39433Y-41681
X40417Y-41681
X49433Y-40181
X50417Y-40181
X51917Y-37681
X51917Y-38665
X53917Y-48181
X53917Y-49181
X53917Y-50181
X53917Y-51181
X56917Y-48181
X56917Y-49181
X56917Y-50181
X56917Y-51181
X65417Y-45681
X66402Y-45681
X67917Y-48681
X68902Y-48681
X70933Y-44681
X71917Y-44681
X72917Y-40181
X72917Y-41165
X73933Y-53181
X74417Y-44681
X74917Y-53181
X75402Y-44681
X77917Y-41181
X77917Y-44681
X77933Y-53181
X78902Y-41181
X78902Y-44681
X78917Y-53181
X81917Y-53181
X82902Y-53181
T7
X51917Y-54181
X51941Y-34512
X52917Y-54181
X52941Y-34512
X53917Y-54181
X53941Y-34512
X54917Y-54181
X54941Y-34512
X55917Y-54181
X55941Y-34512
X56917Y-54181
X56941Y-34512
X57917Y-54181
X57941Y-34512
X58917Y-54181
X58941Y-34512
X59917Y-54181
X59941Y-34512
X60917Y-54181
X60941Y-34512
X61917Y-54181
X61941Y-34512
X62917Y-54181
X62941Y-34512
X63917Y-54181
X63941Y-34512
T9
X29917Y-44181
X29917Y-54181
X30917Y-44181
X30917Y-54181
X31917Y-44181
X31917Y-54181
X32917Y-44181
X32917Y-54181
X33917Y-44181
X33917Y-54181
X34917Y-44181
X34917Y-54181
X35917Y-44181
X35917Y-54181
X36917Y-44181
X36917Y-54181
X37917Y-44181
X37917Y-54181
X38917Y-44181
X38917Y-54181
X39917Y-44181
X39917Y-54181
X40917Y-44181
X40917Y-54181
X41917Y-44181
X41917Y-54181
X42917Y-44181
X42917Y-54181
X43917Y-44181
X43917Y-54181
X44917Y-44181
X44917Y-54181
X45917Y-44181
X45917Y-54181
X46917Y-44181
X46917Y-54181
X47917Y-44181
X47917Y-54181
T10
X53917Y-42181
X54917Y-42181
X55917Y-42181
T11
X68417Y-38681
X70386Y-38681
T12
X63417Y-50181
X65386Y-49197
X65386Y-51165
T13
X62917Y-42681
X62917Y-46681
X63917Y-36181
X63917Y-40181
X68417Y-42181
X68417Y-46181
X70917Y-47681
X70917Y-51681
X73917Y-46681
X73917Y-50681
X74917Y-37681
X76917Y-46681
X76917Y-50681
X78917Y-37681
X79917Y-46681
X79917Y-50681
X80917Y-38181
X80917Y-41181
X80917Y-44181
X82917Y-46681
X82917Y-50681
X84917Y-38181
X84917Y-41181
X84917Y-44181
T6
G00X29027Y-40031
M15
G01X29027Y-40892
M16
G05
T8
G00X31409Y-39181
M15
G01X30425Y-39181
M16
G05
G00X31429Y-41642
M15
G01X30445Y-41642
M16
G05
T0
M30
