G04 #@! TF.GenerationSoftware,KiCad,Pcbnew,(5.1.9)-1*
G04 #@! TF.CreationDate,2021-02-11T13:51:56+09:00*
G04 #@! TF.ProjectId,nixe-board-order,6e697865-2d62-46f6-9172-642d6f726465,rev?*
G04 #@! TF.SameCoordinates,Original*
G04 #@! TF.FileFunction,Soldermask,Top*
G04 #@! TF.FilePolarity,Negative*
%FSLAX46Y46*%
G04 Gerber Fmt 4.6, Leading zero omitted, Abs format (unit mm)*
G04 Created by KiCad (PCBNEW (5.1.9)-1) date 2021-02-11 13:51:56*
%MOMM*%
%LPD*%
G01*
G04 APERTURE LIST*
%ADD10C,1.524000*%
%ADD11C,1.700000*%
%ADD12O,1.700000X1.700000*%
%ADD13R,1.700000X1.700000*%
G04 APERTURE END LIST*
D10*
X31940000Y-121440000D03*
X33910000Y-119730000D03*
X34880000Y-117290000D03*
X34610000Y-114690000D03*
X33120000Y-112450000D03*
X30780000Y-111230000D03*
X28120000Y-111230000D03*
X25770000Y-112410000D03*
X24300000Y-114610000D03*
X23970000Y-117210000D03*
X24900000Y-119640000D03*
X26880000Y-121390000D03*
X29400000Y-122080000D03*
X31940000Y-96440000D03*
X33910000Y-94730000D03*
X34880000Y-92290000D03*
X34610000Y-89690000D03*
X33120000Y-87450000D03*
X30780000Y-86230000D03*
X28120000Y-86230000D03*
X25770000Y-87410000D03*
X24300000Y-89610000D03*
X23970000Y-92210000D03*
X24900000Y-94640000D03*
X26880000Y-96390000D03*
X29400000Y-97080000D03*
X31940000Y-71440000D03*
X33910000Y-69730000D03*
X34880000Y-67290000D03*
X34610000Y-64690000D03*
X33120000Y-62450000D03*
X30780000Y-61230000D03*
X28120000Y-61230000D03*
X25770000Y-62410000D03*
X24300000Y-64610000D03*
X23970000Y-67210000D03*
X24900000Y-69640000D03*
X26880000Y-71390000D03*
X29400000Y-72080000D03*
D11*
X37020000Y-127950000D03*
D12*
X34480000Y-127950000D03*
X31940000Y-127950000D03*
D13*
X29400000Y-127950000D03*
X26860000Y-127950000D03*
D12*
X24320000Y-127950000D03*
X21780000Y-127950000D03*
D11*
X37020000Y-102950000D03*
D12*
X34480000Y-102950000D03*
X31940000Y-102950000D03*
D13*
X29400000Y-102950000D03*
X26860000Y-102950000D03*
D12*
X24320000Y-102950000D03*
X21780000Y-102950000D03*
D11*
X37020000Y-77950000D03*
D12*
X34480000Y-77950000D03*
X31940000Y-77950000D03*
D13*
X29400000Y-77950000D03*
X26860000Y-77950000D03*
D12*
X24320000Y-77950000D03*
X21780000Y-77950000D03*
D11*
X89810000Y-105030000D03*
D12*
X92350000Y-105030000D03*
X94890000Y-105030000D03*
D13*
X97430000Y-105030000D03*
X99970000Y-105030000D03*
D12*
X102510000Y-105030000D03*
X105050000Y-105030000D03*
D11*
X89810000Y-80030000D03*
D12*
X92350000Y-80030000D03*
X94890000Y-80030000D03*
D13*
X97430000Y-80030000D03*
X99970000Y-80030000D03*
D12*
X102510000Y-80030000D03*
X105050000Y-80030000D03*
D11*
X89810000Y-55030000D03*
D12*
X92350000Y-55030000D03*
X94890000Y-55030000D03*
D13*
X97430000Y-55030000D03*
X99970000Y-55030000D03*
D12*
X102510000Y-55030000D03*
X105050000Y-55030000D03*
D10*
X97440000Y-121040000D03*
X95510000Y-120620000D03*
X93920000Y-119390000D03*
X93070000Y-117560000D03*
X93060000Y-115570000D03*
X93900000Y-113770000D03*
X95460000Y-112490000D03*
X97410000Y-112040000D03*
X99370000Y-112450000D03*
X100950000Y-113710000D03*
X101830000Y-115500000D03*
X101850000Y-117490000D03*
X101030000Y-119290000D03*
X99480000Y-120570000D03*
X97440000Y-96040000D03*
X95510000Y-95620000D03*
X93920000Y-94390000D03*
X93070000Y-92560000D03*
X93060000Y-90570000D03*
X93900000Y-88770000D03*
X95460000Y-87490000D03*
X97410000Y-87040000D03*
X99370000Y-87450000D03*
X100950000Y-88710000D03*
X101830000Y-90500000D03*
X101850000Y-92490000D03*
X101030000Y-94290000D03*
X99480000Y-95570000D03*
X97440000Y-71040000D03*
X95510000Y-70620000D03*
X93920000Y-69390000D03*
X93070000Y-67560000D03*
X93060000Y-65570000D03*
X93900000Y-63770000D03*
X95460000Y-62490000D03*
X97410000Y-62040000D03*
X99370000Y-62450000D03*
X100950000Y-63710000D03*
X101830000Y-65500000D03*
X101850000Y-67490000D03*
X101030000Y-69290000D03*
X99480000Y-70570000D03*
D11*
X21790000Y-105120000D03*
D12*
X24330000Y-105120000D03*
X26870000Y-105120000D03*
X29410000Y-105120000D03*
X31950000Y-105120000D03*
X34490000Y-105120000D03*
X37030000Y-105120000D03*
D11*
X21790000Y-80120000D03*
D12*
X24330000Y-80120000D03*
X26870000Y-80120000D03*
X29410000Y-80120000D03*
X31950000Y-80120000D03*
X34490000Y-80120000D03*
X37030000Y-80120000D03*
D11*
X21790000Y-55120000D03*
D12*
X24330000Y-55120000D03*
X26870000Y-55120000D03*
X29410000Y-55120000D03*
X31950000Y-55120000D03*
X34490000Y-55120000D03*
X37030000Y-55120000D03*
D11*
X105040000Y-127890000D03*
D12*
X102500000Y-127890000D03*
X99960000Y-127890000D03*
X97420000Y-127890000D03*
X94880000Y-127890000D03*
X92340000Y-127890000D03*
X89800000Y-127890000D03*
D11*
X105040000Y-102890000D03*
D12*
X102500000Y-102890000D03*
X99960000Y-102890000D03*
X97420000Y-102890000D03*
X94880000Y-102890000D03*
X92340000Y-102890000D03*
X89800000Y-102890000D03*
D11*
X105040000Y-77890000D03*
D12*
X102500000Y-77890000D03*
X99960000Y-77890000D03*
X97420000Y-77890000D03*
X94880000Y-77890000D03*
X92340000Y-77890000D03*
X89800000Y-77890000D03*
X54030000Y-105120000D03*
X51490000Y-105120000D03*
X48950000Y-105120000D03*
X46410000Y-105120000D03*
X43870000Y-105120000D03*
X41330000Y-105120000D03*
D11*
X38790000Y-105120000D03*
D12*
X54030000Y-80120000D03*
X51490000Y-80120000D03*
X48950000Y-80120000D03*
X46410000Y-80120000D03*
X43870000Y-80120000D03*
X41330000Y-80120000D03*
D11*
X38790000Y-80120000D03*
D12*
X54030000Y-55120000D03*
X51490000Y-55120000D03*
X48950000Y-55120000D03*
X46410000Y-55120000D03*
X43870000Y-55120000D03*
X41330000Y-55120000D03*
D11*
X38790000Y-55120000D03*
D12*
X71030000Y-105120000D03*
X68490000Y-105120000D03*
X65950000Y-105120000D03*
X63410000Y-105120000D03*
X60870000Y-105120000D03*
X58330000Y-105120000D03*
D11*
X55790000Y-105120000D03*
D12*
X71030000Y-80120000D03*
X68490000Y-80120000D03*
X65950000Y-80120000D03*
X63410000Y-80120000D03*
X60870000Y-80120000D03*
X58330000Y-80120000D03*
D11*
X55790000Y-80120000D03*
D12*
X71030000Y-55120000D03*
X68490000Y-55120000D03*
X65950000Y-55120000D03*
X63410000Y-55120000D03*
X60870000Y-55120000D03*
X58330000Y-55120000D03*
D11*
X55790000Y-55120000D03*
D12*
X38780000Y-127950000D03*
X41320000Y-127950000D03*
D13*
X43860000Y-127950000D03*
X46400000Y-127950000D03*
D12*
X48940000Y-127950000D03*
X51480000Y-127950000D03*
D11*
X54020000Y-127950000D03*
D12*
X38780000Y-102950000D03*
X41320000Y-102950000D03*
D13*
X43860000Y-102950000D03*
X46400000Y-102950000D03*
D12*
X48940000Y-102950000D03*
X51480000Y-102950000D03*
D11*
X54020000Y-102950000D03*
D12*
X38780000Y-77950000D03*
X41320000Y-77950000D03*
D13*
X43860000Y-77950000D03*
X46400000Y-77950000D03*
D12*
X48940000Y-77950000D03*
X51480000Y-77950000D03*
D11*
X54020000Y-77950000D03*
D12*
X55780000Y-127950000D03*
X58320000Y-127950000D03*
D13*
X60860000Y-127950000D03*
X63400000Y-127950000D03*
D12*
X65940000Y-127950000D03*
X68480000Y-127950000D03*
D11*
X71020000Y-127950000D03*
D12*
X55780000Y-102950000D03*
X58320000Y-102950000D03*
D13*
X60860000Y-102950000D03*
X63400000Y-102950000D03*
D12*
X65940000Y-102950000D03*
X68480000Y-102950000D03*
D11*
X71020000Y-102950000D03*
D12*
X55780000Y-77950000D03*
X58320000Y-77950000D03*
D13*
X60860000Y-77950000D03*
X63400000Y-77950000D03*
D12*
X65940000Y-77950000D03*
X68480000Y-77950000D03*
D11*
X71020000Y-77950000D03*
D12*
X72780000Y-127950000D03*
X75320000Y-127950000D03*
D13*
X77860000Y-127950000D03*
X80400000Y-127950000D03*
D12*
X82940000Y-127950000D03*
X85480000Y-127950000D03*
D11*
X88020000Y-127950000D03*
D12*
X72780000Y-102950000D03*
X75320000Y-102950000D03*
D13*
X77860000Y-102950000D03*
X80400000Y-102950000D03*
D12*
X82940000Y-102950000D03*
X85480000Y-102950000D03*
D11*
X88020000Y-102950000D03*
D12*
X72780000Y-77950000D03*
X75320000Y-77950000D03*
D13*
X77860000Y-77950000D03*
X80400000Y-77950000D03*
D12*
X82940000Y-77950000D03*
X85480000Y-77950000D03*
D11*
X88020000Y-77950000D03*
D10*
X80400000Y-122080000D03*
X77880000Y-121390000D03*
X75900000Y-119640000D03*
X74970000Y-117210000D03*
X75300000Y-114610000D03*
X76770000Y-112410000D03*
X79120000Y-111230000D03*
X81780000Y-111230000D03*
X84120000Y-112450000D03*
X85610000Y-114690000D03*
X85880000Y-117290000D03*
X84910000Y-119730000D03*
X82940000Y-121440000D03*
X80400000Y-97080000D03*
X77880000Y-96390000D03*
X75900000Y-94640000D03*
X74970000Y-92210000D03*
X75300000Y-89610000D03*
X76770000Y-87410000D03*
X79120000Y-86230000D03*
X81780000Y-86230000D03*
X84120000Y-87450000D03*
X85610000Y-89690000D03*
X85880000Y-92290000D03*
X84910000Y-94730000D03*
X82940000Y-96440000D03*
X80400000Y-72080000D03*
X77880000Y-71390000D03*
X75900000Y-69640000D03*
X74970000Y-67210000D03*
X75300000Y-64610000D03*
X76770000Y-62410000D03*
X79120000Y-61230000D03*
X81780000Y-61230000D03*
X84120000Y-62450000D03*
X85610000Y-64690000D03*
X85880000Y-67290000D03*
X84910000Y-69730000D03*
X82940000Y-71440000D03*
X46400000Y-122080000D03*
X43880000Y-121390000D03*
X41900000Y-119640000D03*
X40970000Y-117210000D03*
X41300000Y-114610000D03*
X42770000Y-112410000D03*
X45120000Y-111230000D03*
X47780000Y-111230000D03*
X50120000Y-112450000D03*
X51610000Y-114690000D03*
X51880000Y-117290000D03*
X50910000Y-119730000D03*
X48940000Y-121440000D03*
X46400000Y-97080000D03*
X43880000Y-96390000D03*
X41900000Y-94640000D03*
X40970000Y-92210000D03*
X41300000Y-89610000D03*
X42770000Y-87410000D03*
X45120000Y-86230000D03*
X47780000Y-86230000D03*
X50120000Y-87450000D03*
X51610000Y-89690000D03*
X51880000Y-92290000D03*
X50910000Y-94730000D03*
X48940000Y-96440000D03*
X46400000Y-72080000D03*
X43880000Y-71390000D03*
X41900000Y-69640000D03*
X40970000Y-67210000D03*
X41300000Y-64610000D03*
X42770000Y-62410000D03*
X45120000Y-61230000D03*
X47780000Y-61230000D03*
X50120000Y-62450000D03*
X51610000Y-64690000D03*
X51880000Y-67290000D03*
X50910000Y-69730000D03*
X48940000Y-71440000D03*
X63400000Y-122080000D03*
X60880000Y-121390000D03*
X58900000Y-119640000D03*
X57970000Y-117210000D03*
X58300000Y-114610000D03*
X59770000Y-112410000D03*
X62120000Y-111230000D03*
X64780000Y-111230000D03*
X67120000Y-112450000D03*
X68610000Y-114690000D03*
X68880000Y-117290000D03*
X67910000Y-119730000D03*
X65940000Y-121440000D03*
X63400000Y-97080000D03*
X60880000Y-96390000D03*
X58900000Y-94640000D03*
X57970000Y-92210000D03*
X58300000Y-89610000D03*
X59770000Y-87410000D03*
X62120000Y-86230000D03*
X64780000Y-86230000D03*
X67120000Y-87450000D03*
X68610000Y-89690000D03*
X68880000Y-92290000D03*
X67910000Y-94730000D03*
X65940000Y-96440000D03*
X63400000Y-72080000D03*
X60880000Y-71390000D03*
X58900000Y-69640000D03*
X57970000Y-67210000D03*
X58300000Y-64610000D03*
X59770000Y-62410000D03*
X62120000Y-61230000D03*
X64780000Y-61230000D03*
X67120000Y-62450000D03*
X68610000Y-64690000D03*
X68880000Y-67290000D03*
X67910000Y-69730000D03*
X65940000Y-71440000D03*
D12*
X88030000Y-105120000D03*
X85490000Y-105120000D03*
X82950000Y-105120000D03*
X80410000Y-105120000D03*
X77870000Y-105120000D03*
X75330000Y-105120000D03*
D11*
X72790000Y-105120000D03*
D12*
X88030000Y-80120000D03*
X85490000Y-80120000D03*
X82950000Y-80120000D03*
X80410000Y-80120000D03*
X77870000Y-80120000D03*
X75330000Y-80120000D03*
D11*
X72790000Y-80120000D03*
D12*
X88030000Y-55120000D03*
X85490000Y-55120000D03*
X82950000Y-55120000D03*
X80410000Y-55120000D03*
X77870000Y-55120000D03*
X75330000Y-55120000D03*
D11*
X72790000Y-55120000D03*
D10*
X82940000Y-46440000D03*
X84910000Y-44730000D03*
X85880000Y-42290000D03*
X85610000Y-39690000D03*
X84120000Y-37450000D03*
X81780000Y-36230000D03*
X79120000Y-36230000D03*
X76770000Y-37410000D03*
X75300000Y-39610000D03*
X74970000Y-42210000D03*
X75900000Y-44640000D03*
X77880000Y-46390000D03*
X80400000Y-47080000D03*
X65940000Y-46440000D03*
X67910000Y-44730000D03*
X68880000Y-42290000D03*
X68610000Y-39690000D03*
X67120000Y-37450000D03*
X64780000Y-36230000D03*
X62120000Y-36230000D03*
X59770000Y-37410000D03*
X58300000Y-39610000D03*
X57970000Y-42210000D03*
X58900000Y-44640000D03*
X60880000Y-46390000D03*
X63400000Y-47080000D03*
X48940000Y-46440000D03*
X50910000Y-44730000D03*
X51880000Y-42290000D03*
X51610000Y-39690000D03*
X50120000Y-37450000D03*
X47780000Y-36230000D03*
X45120000Y-36230000D03*
X42770000Y-37410000D03*
X41300000Y-39610000D03*
X40970000Y-42210000D03*
X41900000Y-44640000D03*
X43880000Y-46390000D03*
X46400000Y-47080000D03*
D11*
X88020000Y-52950000D03*
D12*
X85480000Y-52950000D03*
X82940000Y-52950000D03*
D13*
X80400000Y-52950000D03*
X77860000Y-52950000D03*
D12*
X75320000Y-52950000D03*
X72780000Y-52950000D03*
D11*
X71020000Y-52950000D03*
D12*
X68480000Y-52950000D03*
X65940000Y-52950000D03*
D13*
X63400000Y-52950000D03*
X60860000Y-52950000D03*
D12*
X58320000Y-52950000D03*
X55780000Y-52950000D03*
D11*
X54020000Y-52950000D03*
D12*
X51480000Y-52950000D03*
X48940000Y-52950000D03*
D13*
X46400000Y-52950000D03*
X43860000Y-52950000D03*
D12*
X41320000Y-52950000D03*
X38780000Y-52950000D03*
D11*
X72790000Y-30120000D03*
D12*
X75330000Y-30120000D03*
X77870000Y-30120000D03*
X80410000Y-30120000D03*
X82950000Y-30120000D03*
X85490000Y-30120000D03*
X88030000Y-30120000D03*
D11*
X55790000Y-30120000D03*
D12*
X58330000Y-30120000D03*
X60870000Y-30120000D03*
X63410000Y-30120000D03*
X65950000Y-30120000D03*
X68490000Y-30120000D03*
X71030000Y-30120000D03*
D11*
X38790000Y-30120000D03*
D12*
X41330000Y-30120000D03*
X43870000Y-30120000D03*
X46410000Y-30120000D03*
X48950000Y-30120000D03*
X51490000Y-30120000D03*
X54030000Y-30120000D03*
D10*
X29400000Y-47080000D03*
X26880000Y-46390000D03*
X24900000Y-44640000D03*
X23970000Y-42210000D03*
X24300000Y-39610000D03*
X25770000Y-37410000D03*
X28120000Y-36230000D03*
X30780000Y-36230000D03*
X33120000Y-37450000D03*
X34610000Y-39690000D03*
X34880000Y-42290000D03*
X33910000Y-44730000D03*
X31940000Y-46440000D03*
D12*
X21780000Y-52950000D03*
X24320000Y-52950000D03*
D13*
X26860000Y-52950000D03*
X29400000Y-52950000D03*
D12*
X31940000Y-52950000D03*
X34480000Y-52950000D03*
D11*
X37020000Y-52950000D03*
D12*
X37030000Y-30120000D03*
X34490000Y-30120000D03*
X31950000Y-30120000D03*
X29410000Y-30120000D03*
X26870000Y-30120000D03*
X24330000Y-30120000D03*
D11*
X21790000Y-30120000D03*
D12*
X89800000Y-52890000D03*
X92340000Y-52890000D03*
X94880000Y-52890000D03*
X97420000Y-52890000D03*
X99960000Y-52890000D03*
X102500000Y-52890000D03*
D11*
X105040000Y-52890000D03*
D12*
X105050000Y-30030000D03*
X102510000Y-30030000D03*
D13*
X99970000Y-30030000D03*
X97430000Y-30030000D03*
D12*
X94890000Y-30030000D03*
X92350000Y-30030000D03*
D11*
X89810000Y-30030000D03*
D10*
X99480000Y-45570000D03*
X101030000Y-44290000D03*
X101850000Y-42490000D03*
X101830000Y-40500000D03*
X100950000Y-38710000D03*
X99370000Y-37450000D03*
X97410000Y-37040000D03*
X95460000Y-37490000D03*
X93900000Y-38770000D03*
X93060000Y-40570000D03*
X93070000Y-42560000D03*
X93920000Y-44390000D03*
X95510000Y-45620000D03*
X97440000Y-46040000D03*
M02*
