M48
INCH,TZ
T1C0.0157
T2C0.0300
T3C0.0394
%
G90
G05
T1
X35728Y-18492
X35728Y-28335
X35728Y-38177
X35728Y-48020
T2
X9437Y-16618
X9437Y-26461
X9437Y-36303
X9437Y-46146
X9567Y-15594
X9567Y-25437
X9567Y-35280
X9567Y-45122
X9803Y-17575
X9803Y-27417
X9803Y-37260
X9803Y-47102
X10146Y-14728
X10146Y-24571
X10146Y-34413
X10146Y-44256
X10583Y-18264
X10583Y-28106
X10583Y-37949
X10583Y-47791
X11071Y-14264
X11071Y-24106
X11071Y-33949
X11071Y-43791
X11575Y-18535
X11575Y-28378
X11575Y-38220
X11575Y-48063
X12118Y-14264
X12118Y-24106
X12118Y-33949
X12118Y-43791
X12575Y-18283
X12575Y-28126
X12575Y-37969
X12575Y-47811
X13039Y-14744
X13039Y-24587
X13039Y-34429
X13039Y-44272
X13350Y-17610
X13350Y-27453
X13350Y-37295
X13350Y-47138
X13626Y-15626
X13626Y-25469
X13626Y-35311
X13626Y-45154
X13732Y-16650
X13732Y-26492
X13732Y-36335
X13732Y-46177
X16130Y-16618
X16130Y-26461
X16130Y-36303
X16130Y-46146
X16260Y-15594
X16260Y-25437
X16260Y-35280
X16260Y-45122
X16496Y-17575
X16496Y-27417
X16496Y-37260
X16496Y-47102
X16839Y-14728
X16839Y-24571
X16839Y-34413
X16839Y-44256
X17276Y-18264
X17276Y-28106
X17276Y-37949
X17276Y-47791
X17764Y-14264
X17764Y-24106
X17764Y-33949
X17764Y-43791
X18268Y-18535
X18268Y-28378
X18268Y-38220
X18268Y-48063
X18811Y-14264
X18811Y-24106
X18811Y-33949
X18811Y-43791
X19268Y-18283
X19268Y-28126
X19268Y-37969
X19268Y-47811
X19732Y-14744
X19732Y-24587
X19732Y-34429
X19732Y-44272
X20043Y-17610
X20043Y-27453
X20043Y-37295
X20043Y-47138
X20319Y-15626
X20319Y-25469
X20319Y-35311
X20319Y-45154
X20425Y-16650
X20425Y-26492
X20425Y-36335
X20425Y-46177
X22823Y-16618
X22823Y-26461
X22823Y-36303
X22823Y-46146
X22953Y-15594
X22953Y-25437
X22953Y-35280
X22953Y-45122
X23189Y-17575
X23189Y-27417
X23189Y-37260
X23189Y-47102
X23531Y-14728
X23531Y-24571
X23531Y-34413
X23531Y-44256
X23969Y-18264
X23969Y-28106
X23969Y-37949
X23969Y-47791
X24457Y-14264
X24457Y-24106
X24457Y-33949
X24457Y-43791
X24961Y-18535
X24961Y-28378
X24961Y-38220
X24961Y-48063
X25504Y-14264
X25504Y-24106
X25504Y-33949
X25504Y-43791
X25961Y-18283
X25961Y-28126
X25961Y-37969
X25961Y-47811
X26425Y-14744
X26425Y-24587
X26425Y-34429
X26425Y-44272
X26736Y-17610
X26736Y-27453
X26736Y-37295
X26736Y-47138
X27012Y-15626
X27012Y-25469
X27012Y-35311
X27012Y-45154
X27118Y-16650
X27118Y-26492
X27118Y-36335
X27118Y-46177
X29516Y-16618
X29516Y-26461
X29516Y-36303
X29516Y-46146
X29646Y-15594
X29646Y-25437
X29646Y-35280
X29646Y-45122
X29882Y-17575
X29882Y-27417
X29882Y-37260
X29882Y-47102
X30224Y-14728
X30224Y-24571
X30224Y-34413
X30224Y-44256
X30661Y-18264
X30661Y-28106
X30661Y-37949
X30661Y-47791
X31150Y-14264
X31150Y-24106
X31150Y-33949
X31150Y-43791
X31654Y-18535
X31654Y-28378
X31654Y-38220
X31654Y-48063
X32197Y-14264
X32197Y-24106
X32197Y-33949
X32197Y-43791
X32654Y-18283
X32654Y-28126
X32654Y-37969
X32654Y-47811
X33118Y-14744
X33118Y-24587
X33118Y-34429
X33118Y-44272
X33429Y-17610
X33429Y-27453
X33429Y-37295
X33429Y-47138
X33705Y-15626
X33705Y-25469
X33705Y-35311
X33705Y-45154
X33811Y-16650
X33811Y-26492
X33811Y-36335
X33811Y-46177
X36638Y-15972
X36638Y-25815
X36638Y-35657
X36638Y-45500
X36642Y-16756
X36642Y-26598
X36642Y-36441
X36642Y-46283
X36969Y-15264
X36969Y-25106
X36969Y-34949
X36969Y-44791
X36976Y-17476
X36976Y-27319
X36976Y-37161
X36976Y-47004
X37583Y-14760
X37583Y-24602
X37583Y-34445
X37583Y-44287
X37602Y-17961
X37602Y-27803
X37602Y-37646
X37602Y-47488
X38350Y-14583
X38350Y-24425
X38350Y-34268
X38350Y-44110
X38362Y-18126
X38362Y-27969
X38362Y-37811
X38362Y-47654
X39122Y-14744
X39122Y-24587
X39122Y-34429
X39122Y-44272
X39165Y-17941
X39165Y-27783
X39165Y-37626
X39165Y-47469
X39744Y-15240
X39744Y-25083
X39744Y-34925
X39744Y-44768
X39776Y-17437
X39776Y-27280
X39776Y-37122
X39776Y-46965
X40091Y-15945
X40091Y-25787
X40091Y-35630
X40091Y-45472
X40098Y-16728
X40098Y-26571
X40098Y-36413
X40098Y-46256
T3
X8575Y-20846
X8575Y-30689
X8575Y-40531
X8575Y-50374
X8579Y-11858
X8579Y-21701
X8579Y-31543
X8579Y-41386
X9575Y-20846
X9575Y-30689
X9575Y-40531
X9575Y-50374
X9579Y-11858
X9579Y-21701
X9579Y-31543
X9579Y-41386
X10575Y-20846
X10575Y-30689
X10575Y-40531
X10575Y-50374
X10579Y-11858
X10579Y-21701
X10579Y-31543
X10579Y-41386
X11575Y-20846
X11575Y-30689
X11575Y-40531
X11575Y-50374
X11579Y-11858
X11579Y-21701
X11579Y-31543
X11579Y-41386
X12575Y-20846
X12575Y-30689
X12575Y-40531
X12575Y-50374
X12579Y-11858
X12579Y-21701
X12579Y-31543
X12579Y-41386
X13575Y-20846
X13575Y-30689
X13575Y-40531
X13575Y-50374
X13579Y-11858
X13579Y-21701
X13579Y-31543
X13579Y-41386
X14575Y-20846
X14575Y-30689
X14575Y-40531
X14575Y-50374
X14579Y-11858
X14579Y-21701
X14579Y-31543
X14579Y-41386
X15268Y-20846
X15268Y-30689
X15268Y-40531
X15268Y-50374
X15272Y-11858
X15272Y-21701
X15272Y-31543
X15272Y-41386
X16268Y-20846
X16268Y-30689
X16268Y-40531
X16268Y-50374
X16272Y-11858
X16272Y-21701
X16272Y-31543
X16272Y-41386
X17268Y-20846
X17268Y-30689
X17268Y-40531
X17268Y-50374
X17272Y-11858
X17272Y-21701
X17272Y-31543
X17272Y-41386
X18268Y-20846
X18268Y-30689
X18268Y-40531
X18268Y-50374
X18272Y-11858
X18272Y-21701
X18272Y-31543
X18272Y-41386
X19268Y-20846
X19268Y-30689
X19268Y-40531
X19268Y-50374
X19272Y-11858
X19272Y-21701
X19272Y-31543
X19272Y-41386
X20268Y-20846
X20268Y-30689
X20268Y-40531
X20268Y-50374
X20272Y-11858
X20272Y-21701
X20272Y-31543
X20272Y-41386
X21268Y-20846
X21268Y-30689
X21268Y-40531
X21268Y-50374
X21272Y-11858
X21272Y-21701
X21272Y-31543
X21272Y-41386
X21961Y-20846
X21961Y-30689
X21961Y-40531
X21961Y-50374
X21965Y-11858
X21965Y-21701
X21965Y-31543
X21965Y-41386
X22961Y-20846
X22961Y-30689
X22961Y-40531
X22961Y-50374
X22965Y-11858
X22965Y-21701
X22965Y-31543
X22965Y-41386
X23961Y-20846
X23961Y-30689
X23961Y-40531
X23961Y-50374
X23965Y-11858
X23965Y-21701
X23965Y-31543
X23965Y-41386
X24961Y-20846
X24961Y-30689
X24961Y-40531
X24961Y-50374
X24965Y-11858
X24965Y-21701
X24965Y-31543
X24965Y-41386
X25961Y-20846
X25961Y-30689
X25961Y-40531
X25961Y-50374
X25965Y-11858
X25965Y-21701
X25965Y-31543
X25965Y-41386
X26961Y-20846
X26961Y-30689
X26961Y-40531
X26961Y-50374
X26965Y-11858
X26965Y-21701
X26965Y-31543
X26965Y-41386
X27961Y-20846
X27961Y-30689
X27961Y-40531
X27961Y-50374
X27965Y-11858
X27965Y-21701
X27965Y-31543
X27965Y-41386
X28654Y-20846
X28654Y-30689
X28654Y-40531
X28654Y-50374
X28657Y-11858
X28657Y-21701
X28657Y-31543
X28657Y-41386
X29654Y-20846
X29654Y-30689
X29654Y-40531
X29654Y-50374
X29657Y-11858
X29657Y-21701
X29657Y-31543
X29657Y-41386
X30654Y-20846
X30654Y-30689
X30654Y-40531
X30654Y-50374
X30657Y-11858
X30657Y-21701
X30657Y-31543
X30657Y-41386
X31654Y-20846
X31654Y-30689
X31654Y-40531
X31654Y-50374
X31657Y-11858
X31657Y-21701
X31657Y-31543
X31657Y-41386
X32654Y-20846
X32654Y-30689
X32654Y-40531
X32654Y-50374
X32657Y-11858
X32657Y-21701
X32657Y-31543
X32657Y-41386
X33654Y-20846
X33654Y-30689
X33654Y-40531
X33654Y-50374
X33657Y-11858
X33657Y-21701
X33657Y-31543
X33657Y-41386
X34654Y-20846
X34654Y-30689
X34654Y-40531
X34654Y-50374
X34657Y-11858
X34657Y-21701
X34657Y-31543
X34657Y-41386
X35354Y-20823
X35354Y-30665
X35354Y-40508
X35354Y-50350
X35358Y-11823
X35358Y-21665
X35358Y-31508
X35358Y-41350
X36354Y-20823
X36354Y-30665
X36354Y-40508
X36354Y-50350
X36358Y-11823
X36358Y-21665
X36358Y-31508
X36358Y-41350
X37354Y-20823
X37354Y-30665
X37354Y-40508
X37354Y-50350
X37358Y-11823
X37358Y-21665
X37358Y-31508
X37358Y-41350
X38354Y-20823
X38354Y-30665
X38354Y-40508
X38354Y-50350
X38358Y-11823
X38358Y-21665
X38358Y-31508
X38358Y-41350
X39354Y-20823
X39354Y-30665
X39354Y-40508
X39354Y-50350
X39358Y-11823
X39358Y-21665
X39358Y-31508
X39358Y-41350
X40354Y-20823
X40354Y-30665
X40354Y-40508
X40354Y-50350
X40358Y-11823
X40358Y-21665
X40358Y-31508
X40358Y-41350
X41354Y-20823
X41354Y-30665
X41354Y-40508
X41354Y-50350
X41358Y-11823
X41358Y-21665
X41358Y-31508
X41358Y-41350
T0
M30
